<?xml version="1.0" encoding="UTF-8" standalone="no"?>
<!DOCTYPE svg PUBLIC "-//W3C//DTD SVG 1.1//EN" "http://www.w3.org/Graphics/SVG/1.1/DTD/svg11.dtd">
<svg version="1.1" xmlns="http://www.w3.org/2000/svg" xmlns:xlink="http://www.w3.org/1999/xlink" preserveAspectRatio="xMidYMid meet" viewBox="0 0 59 59" width="59" height="59"><defs><path d="M43.93 21.23C43.93 16.27 43.93 13.51 43.93 12.96C43.93 11.93 43.09 11.1 42.06 11.1C41.03 11.1 40.19 11.93 40.19 12.96C40.19 13.26 40.19 14.78 40.19 17.5C34.87 12.19 31.91 9.24 31.32 8.65C30.59 7.92 29.41 7.92 28.68 8.65C26.16 11.16 6.02 31.26 3.5 33.77C2.77 34.5 2.77 35.68 3.5 36.41C4.23 37.14 5.41 37.14 6.15 36.41C7.74 34.82 15.69 26.89 30 12.61C44.31 26.89 52.26 34.82 53.85 36.41C54.22 36.77 54.7 36.96 55.18 36.96C55.65 36.96 56.13 36.77 56.5 36.41C57.23 35.68 57.23 34.5 56.5 33.77C54.82 32.1 50.63 27.92 43.93 21.23Z" id="a1NsCSHeU3"></path><path d="M31.32 16.13C30.97 15.78 30.5 15.58 30 15.58C29.5 15.58 29.03 15.78 28.68 16.13C26.69 18.11 10.83 33.93 8.85 35.91C8.59 36.17 8.41 36.51 8.34 36.87C8.28 37.16 8.25 37.45 8.25 37.73C8.25 38.69 8.25 46.42 8.25 47.38C8.25 49.87 10.28 51.89 12.77 51.89C13.74 51.89 21.48 51.89 22.45 51.89C23.71 51.89 24.91 51.37 25.77 50.44C26.54 49.6 26.97 48.52 26.97 47.38C26.97 46.67 26.97 41 26.97 40.29C26.97 38.57 28.29 37.13 30 36.97C31.71 37.13 33.03 38.57 33.03 40.29C33.03 41 33.03 46.67 33.03 47.38C33.03 48.52 33.46 49.6 34.24 50.44C35.09 51.37 36.3 51.89 37.55 51.89C38.52 51.89 46.26 51.89 47.23 51.89C49.72 51.89 51.75 49.87 51.75 47.38C51.75 46.42 51.75 38.7 51.75 37.73C51.75 37.45 51.72 37.16 51.67 36.88C51.6 36.51 51.41 36.17 51.15 35.91C47.18 31.95 33.3 18.11 31.32 16.13Z" id="b6RFuVKgTa"></path></defs><g><g><g><use xlink:href="#a1NsCSHeU3" opacity="1" fill="#ffffff" fill-opacity="1"></use><g><use xlink:href="#a1NsCSHeU3" opacity="1" fill-opacity="0" stroke="#000000" stroke-width="1" stroke-opacity="0"></use></g></g><g><use xlink:href="#b6RFuVKgTa" opacity="1" fill="#ffffff" fill-opacity="1"></use><g><use xlink:href="#b6RFuVKgTa" opacity="1" fill-opacity="0" stroke="#000000" stroke-width="1" stroke-opacity="0"></use></g></g></g></g></svg>