<svg id="Capa_1" enable-background="new 0 0 512 512" height="512" viewBox="0 0 512 512" width="512" xmlns="http://www.w3.org/2000/svg"><path d="m80 186c0 12.131 9.869 22 22 22s22-9.869 22-22v-45.515l14.242-14.242-8.484-8.485-14.243 14.242h-7.515v-26h-12v26h-7.515l-14.243-14.243-8.484 8.485 14.242 14.243zm22 10c-5.514 0-10-4.486-10-10v-10h20v10c0 5.514-4.486 10-10 10zm10-52v20h-20v-20z"/><path d="m496 268v-80h-32v-48h-24v-24h-24v-24h-16v-28.485l-16-16v-47.515h-12v47.515l-16 16v28.485h-16v24h-24v24h-24v48h-32v80h-16v232h-88v-32h-16v-35.515l32 32v-108l50.485-50.485-40.485-40.485-10 10v-34.887c0-15.786-12.842-28.628-28.627-28.628-7.647 0-14.836 2.978-20.242 8.385l-21.131 21.13-58-58.001v-35.514h-16v-16.839c9.223-2.619 16-11.111 16-21.161 0-9.717-12.882-32.342-16.83-39.045l-5.17-8.777-5.17 8.777c-3.948 6.703-16.83 29.328-16.83 39.045 0 10.051 6.777 18.543 16 21.161v17.677c-9.223 2.619-16 11.111-16 21.162 0 12.131 9.869 22 22 22h10v36.485l17.515 17.515-.444.444c-8.578 8.578-8.578 22.535 0 31.112l8.444 8.444-6.384 6.384c-7.178 7.177-11.131 16.72-11.131 26.871v34.328c-5.206 8.427-8 18.146-8 28.299v58.603l24-24v48l8-8v11.515h-16v32h-48v12h512v-244zm-388 200v-55.515l20-20v75.515zm74-185.515 23.515 23.515-33.515 33.515v-47.03zm-22-41.858v194.887l-20-19.999v-191.17c1.098-.225 2.226-.345 3.373-.345 9.168 0 16.627 7.459 16.627 16.627zm-148-130.627c0-3.39 4.586-13.582 10.001-23.727 5.414 10.142 9.999 20.333 9.999 23.727 0 5.514-4.486 10-10 10s-10-4.486-10-10zm10 70c-5.514 0-10-4.486-10-10s4.486-10 10-10h10v11.515 8.485zm22 43.515v-23.029l25.515 25.514-11.515 11.515zm13.556 45.556c-1.888-1.889-2.928-4.4-2.928-7.071s1.04-5.182 2.928-7.071l20.444-20.444 15.515 15.515-27.515 27.515zm2.059 31.799 68.385-68.384v31.029l-76 75.999v-20.26c0-6.944 2.704-13.474 7.615-18.384zm-15.615 81.012c0-11.219 4.369-21.766 12.301-29.699l71.699-71.698v47.03l-84 83.999zm84-37.397v31.03l-60 59.999v-31.029zm-52 100 20-20v43.515h-20zm-16 35.515h84v20h-84zm424-280v68h-20v-68zm-176 80v220h-20v-220zm16-12h-20v-68h20zm-4 12h20v184h76v-184h20v220h-116zm112-12v-68h20v68zm16 12h20v220h-20zm4-92h-32v80h-16v184h-20v-300h68zm-84-119.515 10-10 10 10v23.515h-20zm-16 35.515h52v12h-52zm-24 24h100v12h-100zm-24 24h68v300h-20v-184h-16v-80h-32zm-32 48h20v68h-20zm-16 80h20v220h-20zm244 220h-20v-220h20z"/></svg>