<?xml version="1.0"?>
<svg xmlns="http://www.w3.org/2000/svg" width="512" height="512" viewBox="0 0 128 128"><path d="M112.4,5.75A5.756,5.756,0,0,0,106.647,0h-32.1A11.769,11.769,0,0,0,63.21,8.69H59.29A37.793,37.793,0,0,0,21.54,46.44V77.523a6.062,6.062,0,0,0-3.49,7.892l2.508,6.359L15.62,126a1.749,1.749,0,0,0,1.732,2H37.227a1.749,1.749,0,0,0,1.733-2L34.022,91.774l2.508-6.359a6.06,6.06,0,0,0-3.49-7.892V46.44A26.279,26.279,0,0,1,59.29,20.19h3.5v6A36.157,36.157,0,0,0,46.524,56.233V122.25a5.756,5.756,0,0,0,5.75,5.75H96.821a5.756,5.756,0,0,0,5.75-5.75V56.233a35.278,35.278,0,0,0-.359-4.949,1.763,1.763,0,0,0-.031-.193,36.2,36.2,0,0,0-15.875-24.9v-7.63l7.368,4.255a9.758,9.758,0,0,0,13.319-3.57,1.75,1.75,0,0,0-.641-2.391L97.079,11.5h9.568A5.756,5.756,0,0,0,112.4,5.75Zm-3.5,0A2.253,2.253,0,0,1,106.647,8H85.679a11.781,11.781,0,0,0-2.773-4.5h23.741A2.253,2.253,0,0,1,108.9,5.75ZM74.548,3.5a8.267,8.267,0,0,1,8.258,8.258v13.62H66.29V11.758c0-.2.016-.4.031-.6.013-.153.028-.31.051-.487v-.011A8.265,8.265,0,0,1,74.548,3.5Zm-55.175,121,4.5-31.185h6.836l4.5,31.185Zm13.9-40.368-2.242,5.683H23.548l-2.242-5.683a2.563,2.563,0,0,1,2.384-3.5h7.2a2.563,2.563,0,0,1,2.383,3.5ZM59.29,16.69A29.783,29.783,0,0,0,29.54,46.44V77.128h-4.5V46.44A34.288,34.288,0,0,1,59.29,12.19h3.5v4.5Zm39.781,93.563H50.024v-5.625H99.071ZM96.821,124.5H52.274a2.253,2.253,0,0,1-2.25-2.25v-8.5H99.071v8.5A2.253,2.253,0,0,1,96.821,124.5Zm2.25-68.267V86.5H84.423V53.253H98.915C99.008,54.241,99.071,55.233,99.071,56.233Zm-.676-6.48H82.673a1.749,1.749,0,0,0-1.75,1.75v36.75A1.749,1.749,0,0,0,82.673,90h16.4v11.125H50.024V56.233A32.642,32.642,0,0,1,65.043,28.878H84.054A32.673,32.673,0,0,1,98.4,49.753Zm4.476-30.868a6.259,6.259,0,0,1-7.447.9l-9.118-5.264v-2.76c0-.087-.012-.172-.013-.258h3.786Z"/></svg>
