<svg id="Capa_1" enable-background="new 0 0 512 512" height="512" viewBox="0 0 512 512" width="512" xmlns="http://www.w3.org/2000/svg"><g><path d="m437 242c-36.219 0-66.523 25.809-73.493 60h-32.507v-75c0-43.058-25.564-79.647-60-96.561v-70.439h-30v-30h68.787l25.606 25.607 21.213-21.213-34.393-34.394h-171.213v30h60v30h-30v70.339c-34.936 16.938-61 53.629-61 96.661v285h347c24.813 0 45-20.187 45-45 0-11.517-4.354-22.032-11.495-30 7.141-7.968 11.495-18.483 11.495-30 0-15.992-8.392-30.052-20.997-38.035 12.987-13.491 20.997-31.805 20.997-51.965 0-41.355-33.645-75-75-75zm30 150c8.271 0 15 6.729 15 15s-6.729 15-15 15h-241c-8.271 0-15-6.729-15-15s6.729-15 15-15zm-15-60v-30h-57.42c6.192-17.459 22.865-30 42.42-30 24.813 0 45 20.187 45 45s-20.187 45-45 45h-211c-8.271 0-15-6.729-15-15s6.729-15 15-15zm-241-242h30v31.103c-4.929-.728-9.938-1.103-15-1.103-5.057 0-10.066.374-15 1.098zm-61 137c0-41.738 34.804-77 76-77 40.654 0 75 35.262 75 77v75h-75c-24.813 0-45 20.187-45 45 0 11.517 4.354 22.032 11.495 30-7.141 7.968-11.495 18.483-11.495 30s4.354 22.032 11.495 30c-7.141 7.968-11.495 18.483-11.495 30 0 5.258.915 10.305 2.58 15h-33.58zm317 255h-241c-8.271 0-15-6.729-15-15s6.729-15 15-15h241c8.271 0 15 6.729 15 15s-6.729 15-15 15z"/><path d="m90 332h-30v-2.58c17.459-6.192 30-22.865 30-42.42 0-18.424-22.152-53.311-32.658-68.525l-12.342-17.868-12.342 17.867c-10.513 15.225-32.658 50.105-32.658 68.526 0 19.555 12.541 36.228 30 42.42v2.58h-30v180h90zm-44.997-77.199c8.633 14.543 14.869 27.609 14.997 32.211-.006 8.265-6.733 14.988-15 14.988-8.271 0-15-6.729-15-14.983.122-4.585 6.362-17.658 15.003-32.216zm14.997 227.199h-30v-120h30z"/></g></svg>